PathFileType	4	(X/Y/Z)	/Users/itak/Documents/Research/Walk-IL/dataset/trc/00450_00167.trc
DataRate	CameraRate	NumFrames	NumMarkers	Units	OrigDataRate	OrigDataStartFrame	OrigNumFrames
100.000000	100.000000	4	53	mm	100.000000	109	436
Frame#	Time	RPSI			LPSI			L3			STRN			T10			C7			CLAV			RBAK			LBAK			LSHO			LUPA			LAEL			LAOL			LWTS			LWPS			LFRA			LIFD			LHPS			LHTS			RSHO			RUPA			RAEL			RAOL			RWTS			RWPS			RFRA			RIFD			RHTS			RHPS			RBHD			LFHD			RFHD			LBHD			LHIP			RHIP			RASI			LASI			LKNE			LTHI			LANK			LTIP			LTOE			LMT1			LMT5			LHEE			RKNE			RTHI			RANK			RTIP			RTOE			RMT1			RMT5			RHEE			
		X1	Y1	Z1	X2	Y2	Z2	X3	Y3	Z3	X4	Y4	Z4	X5	Y5	Z5	X6	Y6	Z6	X7	Y7	Z7	X8	Y8	Z8	X9	Y9	Z9	X10	Y10	Z10	X11	Y11	Z11	X12	Y12	Z12	X13	Y13	Z13	X14	Y14	Z14	X15	Y15	Z15	X16	Y16	Z16	X17	Y17	Z17	X18	Y18	Z18	X19	Y19	Z19	X20	Y20	Z20	X21	Y21	Z21	X22	Y22	Z22	X23	Y23	Z23	X24	Y24	Z24	X25	Y25	Z25	X26	Y26	Z26	X27	Y27	Z27	X28	Y28	Z28	X29	Y29	Z29	X30	Y30	Z30	X31	Y31	Z31	X32	Y32	Z32	X33	Y33	Z33	X34	Y34	Z34	X35	Y35	Z35	X36	Y36	Z36	X37	Y37	Z37	X38	Y38	Z38	X39	Y39	Z39	X40	Y40	Z40	X41	Y41	Z41	X42	Y42	Z42	X43	Y43	Z43	X44	Y44	Z44	X45	Y45	Z45	X46	Y46	Z46	X47	Y47	Z47	X48	Y48	Z48	X49	Y49	Z49	X50	Y50	Z50	X51	Y51	Z51	X52	Y52	Z52	X53	Y53	Z53	

110	1.09	-1599.915771484375	939.443115234375	-517.7884521484375	-1529.685668945312	941.00439453125	-641.76953125	-1545.483764648438	1043.021118164062	-562.2338256835938	-1279.03515625	1198.925048828125	-422.1725769042969	-1536.70361328125	1167.685668945312	-567.2255859375	-1449.715576171875	1424.201049804688	-505.163818359375	-1294.90673828125	1316.960083007812	-435.423828125	-1565.473510742188	1317.955810546875	-467.3807067871094	-1435.465087890625	1378.79833984375	-608.8862915039062	-1305.787963867188	1387.381591796875	-631.7787475585938	-1279.521728515625	1275.959106445312	-734.2276611328125	-1260.400634765625	1062.449096679688	-777.3693237304688	-1362.147827148438	1049.979614257812	-759.8135375976562	-1203.399780273438	868.193603515625	-689.0504150390625	-1217.195556640625	847.2937622070312	-759.2392578125	-1234.22119140625	975.9840087890625	-772.6804809570312	-1200.6083984375	698.5586547851562	-679.3802490234375	-1209.03173828125	766.5128173828125	-750.7665405273438	-1183.233642578125	777.7955932617188	-684.1527099609375	-1474.204833984375	1386.038330078125	-333.1537475585938	-1541.0087890625	1333.985717773438	-287.7418518066406	-1652.661010742188	1071.174926757812	-265.3213195800781	-1681.209594726562	1072.315307617188	-326.740478515625	-1619.977661132812	845.469482421875	-278.5248718261719	-1705.79931640625	858.0725708007812	-264.2933044433594	-1674.116333007812	1015.98828125	-261.6908569335938	-1675.060180664062	696.0872192382812	-285.5469360351562	-1647.461059570312	748.0853881835938	-269.0144958496094	-1719.81494140625	771.6436157226562	-263.4681091308594	-1413.44677734375	1605.431274414062	-394.5474243164062	-1223.489868164062	1624.513916015625	-476.7293090820312	-1282.205810546875	1630.835083007812	-359.1871337890625	-1349.353271484375	1600.555297851562	-560.61181640625	-1367.179443359375	822.8123168945312	-682.6018676757812	-1560.883056640625	836.9832763671875	-333.5926208496094	-1443.85595703125	873.2864379882812	-351.0953063964844	-1311.246826171875	855.90966796875	-568.455322265625	-1425.863891601562	402.1919250488281	-646.1876831054688	-1370.876342773438	551.4847412109375	-651.7735595703125	-1642.32275390625	40.26190567016602	-738.2144165039062	-1487.458862304688	260.1687622070312	-682.6456298828125	-1471.669067382812	45.25761413574219	-576.6087646484375	-1547.53564453125	52.76560592651367	-580.3508911132812	-1501.40087890625	42.75569915771484	-687.7713012695312	-1714.528442382812	47.7083625793457	-716.7780151367188	-1476.145141601562	457.5753479003906	-291.0569458007812	-1504.07861328125	709.9362182617188	-294.2330932617188	-1743.034545898438	114.8128509521484	-379.3650207519531	-1558.171264648438	337.1929626464844	-301.3588256835938	-1552.4794921875	45.90967559814453	-337.916259765625	-1582.04150390625	59.38966751098633	-394.9143981933594	-1648.652221679688	54.60614776611328	-310.6285705566406	-1774.94384765625	141.6190338134766	-448.8096008300781	
111	1.1	-1596.052978515625	937.881591796875	-515.4783325195312	-1525.732666015625	939.9408569335938	-639.496337890625	-1540.859008789062	1042.080810546875	-560.4097900390625	-1273.646118164062	1196.709106445312	-419.6574096679688	-1531.054077148438	1166.751953125	-565.2404174804688	-1443.047973632812	1422.842041015625	-502.7701721191406	-1288.977905273438	1314.811767578125	-432.7485961914062	-1559.277709960938	1317.138427734375	-465.6531066894531	-1428.7373046875	1377.45703125	-606.5132446289062	-1299.048706054688	1385.624267578125	-629.0179443359375	-1272.536987304688	1274.563720703125	-731.7913818359375	-1251.864501953125	1061.660522460938	-775.5316162109375	-1353.471069335938	1047.734130859375	-758.3308715820312	-1191.142456054688	870.2371215820312	-683.8644409179688	-1204.280151367188	847.7793579101562	-753.5905151367188	-1223.973022460938	975.7816772460938	-769.4740600585938	-1185.161376953125	700.8165283203125	-671.0760498046875	-1194.723754882812	767.2658081054688	-743.599365234375	-1169.147216796875	780.26953125	-677.2130737304688	-1468.201538085938	1384.573974609375	-330.8633422851562	-1535.585815429688	1333.01220703125	-286.0079345703125	-1650.895629882812	1072.012939453125	-265.4102478027344	-1678.968383789062	1074.21728515625	-327.00634765625	-1623.582763671875	845.599853515625	-279.989990234375	-1709.155151367188	860.29345703125	-266.1808471679688	-1673.593139648438	1017.332092285156	-262.2528686523438	-1682.34716796875	697.7147216796875	-288.4931640625	-1653.652587890625	748.8929443359375	-271.468017578125	-1725.343139648438	774.2107543945312	-266.0972595214844	-1407.089721679688	1603.475952148438	-391.8431091308594	-1217.1025390625	1622.799926757812	-473.9439392089844	-1275.877563476562	1629.041259765625	-356.3992004394531	-1342.853637695312	1598.683715820312	-557.84228515625	-1363.491943359375	821.7134399414062	-680.9096069335938	-1555.658081054688	835.7138061523438	-330.8222961425781	-1439.240478515625	872.3848876953125	-349.337158203125	-1307.335083007812	854.461181640625	-566.8489379882812	-1423.092163085938	401.1939697265625	-645.2943115234375	-1367.691772460938	550.3965454101562	-650.6156005859375	-1641.885375976562	40.83964920043945	-738.6251831054688	-1485.258544921875	259.7661743164062	-681.9609985351562	-1471.794067382812	45.30352783203125	-576.6754150390625	-1547.53076171875	52.76153945922852	-580.5582885742188	-1501.251953125	42.60940551757812	-687.8807983398438	-1714.133544921875	48.9395637512207	-717.4857177734375	-1463.314819335938	458.4099426269531	-285.4342956542969	-1496.182861328125	709.7840576171875	-290.8555603027344	-1737.748413085938	122.5154571533203	-376.6018371582031	-1547.23681640625	339.6286010742188	-296.3941040039062	-1550.6689453125	45.45772171020508	-336.9233093261719	-1579.277221679688	60.91737365722656	-393.6746826171875	-1645.657958984375	57.40901184082031	-309.2615051269531	-1768.79736328125	151.7595062255859	-445.3817443847656	
112	1.11	-1592.135009765625	936.3502807617188	-513.0435791015625	-1521.68994140625	938.9122314453125	-637.0763549804688	-1536.210205078125	1041.100708007812	-558.4205322265625	-1268.1826171875	1194.429077148438	-417.0063171386719	-1525.341064453125	1165.795043945312	-563.0427856445312	-1436.261352539062	1421.46044921875	-500.2708740234375	-1282.9482421875	1312.602294921875	-429.9290771484375	-1552.969482421875	1316.336547851562	-463.7987670898438	-1421.929321289062	1376.071899414062	-604.0240478515625	-1292.219360351562	1383.767211914062	-626.1275634765625	-1265.458740234375	1273.062255859375	-729.206298828125	-1242.96337890625	1060.905883789062	-773.5462036132812	-1344.433837890625	1045.334350585938	-756.8079223632812	-1178.382446289062	872.7296142578125	-678.2236938476562	-1190.650268554688	848.6300048828125	-747.4613037109375	-1213.228271484375	975.7420654296875	-765.9705810546875	-1168.90087890625	703.6596069335938	-662.1434936523438	-1179.53759765625	768.5148315429688	-735.8435668945312	-1154.36865234375	783.3158569335938	-669.6925659179688	-1462.086181640625	1383.11181640625	-328.4411926269531	-1530.066772460938	1332.063598632812	-284.1573486328125	-1649.110473632812	1072.994750976562	-265.4761962890625	-1676.659423828125	1076.280395507812	-327.2457580566406	-1627.282836914062	846.003173828125	-281.516845703125	-1712.56396484375	862.8368530273438	-268.1502075195312	-1673.063232421875	1018.869323730469	-262.8106994628906	-1689.74462890625	699.7651977539062	-291.5802612304688	-1659.998413085938	750.03955078125	-274.0303039550781	-1730.968383789062	777.165283203125	-268.8502197265625	-1400.681274414062	1601.469604492188	-389.06298828125	-1210.641357421875	1621.093383789062	-471.0279235839844	-1269.514892578125	1627.220336914062	-353.5125122070312	-1336.277099609375	1596.778686523438	-554.976318359375	-1359.771850585938	820.6638793945312	-679.0960693359375	-1550.429931640625	834.4332275390625	-327.9392700195312	-1434.596923828125	871.4588623046875	-347.3872985839844	-1303.394653320312	852.9968872070312	-565.066650390625	-1420.465087890625	400.2496643066406	-644.423828125	-1364.572021484375	549.349853515625	-649.408203125	-1641.470947265625	41.44449615478516	-738.9647827148438	-1483.261596679688	259.3727111816406	-681.3425903320312	-1471.86962890625	45.34803009033203	-576.7416381835938	-1547.484619140625	52.76966857910156	-580.7271118164062	-1501.131713867188	42.47382736206055	-687.9722900390625	-1713.7783203125	50.19168472290039	-718.1124267578125	-1450.35498046875	459.3966979980469	-279.8486938476562	-1488.33740234375	709.6840209960938	-287.3654174804688	-1731.721313476562	130.3454132080078	-373.5478820800781	-1535.927490234375	342.1471252441406	-291.3936462402344	-1547.923217773438	45.19401550292969	-335.3243408203125	-1575.67138671875	62.96506118774414	-391.9179382324219	-1641.861328125	60.77322769165039	-307.4365234375	-1761.961791992188	161.6722717285156	-441.7200622558594	
113	1.12	-1588.121337890625	934.8489379882812	-510.43359375	-1517.59326171875	937.9495849609375	-634.5047607421875	-1531.521362304688	1040.114501953125	-556.2349243164062	-1262.633544921875	1192.1064453125	-414.2062683105469	-1519.5771484375	1164.835327148438	-560.6309814453125	-1429.343872070312	1420.074340820312	-497.6544494628906	-1276.806884765625	1310.35546875	-426.951171875	-1546.55126953125	1315.572387695312	-461.7985229492188	-1415.028198242188	1374.665405273438	-601.4044189453125	-1285.296630859375	1381.830932617188	-623.0930786132812	-1258.275268554688	1271.48046875	-726.4534301757812	-1233.678833007812	1060.225463867188	-771.376953125	-1335.009887695312	1042.820434570312	-755.2092895507812	-1165.130249023438	875.740234375	-672.0886840820312	-1176.29443359375	849.9351806640625	-740.8211059570312	-1201.978393554688	975.9295043945312	-762.1296997070312	-1151.838989257812	707.1796875	-652.5774536132812	-1163.456420898438	770.3650512695312	-727.4912109375	-1138.926025390625	787.0221557617188	-661.5675659179688	-1455.846313476562	1381.6787109375	-325.8757629394531	-1524.439697265625	1331.180053710938	-282.1764831542969	-1647.296020507812	1074.165405273438	-265.5026245117188	-1674.284057617188	1078.547607421875	-327.4425964355469	-1631.066040039062	846.7327880859375	-283.115234375	-1715.989868164062	865.7440185546875	-270.1799621582031	-1672.515258789062	1020.642822265625	-263.3483581542969	-1697.212036132812	702.2849731445312	-294.83154296875	-1666.410278320312	751.5719604492188	-276.7000122070312	-1736.647338867188	780.5537719726562	-271.7160949707031	-1394.2080078125	1599.42431640625	-386.1986694335938	-1204.099731445312	1619.411254882812	-467.9751281738281	-1263.1162109375	1625.394775390625	-350.5213623046875	-1329.6259765625	1594.861328125	-552.0149536132812	-1356.012451171875	819.6636962890625	-677.1486206054688	-1545.186767578125	833.172119140625	-324.9226379394531	-1429.906616210938	870.5288696289062	-345.2473754882812	-1299.40576171875	851.5367431640625	-563.1171875	-1417.95654296875	399.3666687011719	-643.55078125	-1361.498657226562	548.34765625	-648.1372680664062	-1641.076416015625	42.11215591430664	-739.2353515625	-1481.4541015625	258.9924926757812	-680.782470703125	-1471.88330078125	45.39496612548828	-576.79833984375	-1547.410522460938	52.78540420532227	-580.8600463867188	-1501.036254882812	42.35639190673828	-688.0429077148438	-1713.464111328125	51.50213241577148	-718.6676635742188	-1437.344970703125	460.5463256835938	-274.3291015625	-1480.568237304688	709.642333984375	-283.7713012695312	-1724.868896484375	138.0856018066406	-370.1647338867188	-1524.30224609375	344.7308044433594	-286.3889770507812	-1543.98291015625	45.30546951293945	-332.9499816894531	-1571.003662109375	65.55404663085938	-389.5051574707031	-1637.057006835938	64.66627502441406	-305.0299072265625	-1754.40380859375	171.0470581054688	-437.8296508789062	
